G04 PROTEUS GERBER X2 FILE*
%TF.GenerationSoftware,Labcenter,Proteus,8.6-SP2-Build23525*%
%TF.CreationDate,2021-09-04T14:22:35+00:00*%
%TF.FileFunction,Soldermask,Top*%
%TF.FilePolarity,Negative*%
%TF.Part,Single*%
%FSLAX45Y45*%
%MOMM*%
G01*
%TA.AperFunction,Material*%
%ADD21C,1.016000*%
%TA.AperFunction,Material*%
%ADD22C,1.651000*%
%ADD23C,2.032000*%
%TA.AperFunction,Material*%
%ADD24C,2.286000*%
%AMPPAD017*
4,1,36,
0.762000,0.635000,
0.762000,-0.635000,
0.759470,-0.660970,
0.752200,-0.684980,
0.740650,-0.706580,
0.725290,-0.725290,
0.706570,-0.740650,
0.684980,-0.752200,
0.660970,-0.759470,
0.635000,-0.762000,
-0.635000,-0.762000,
-0.660970,-0.759470,
-0.684980,-0.752200,
-0.706570,-0.740650,
-0.725290,-0.725290,
-0.740650,-0.706580,
-0.752200,-0.684980,
-0.759470,-0.660970,
-0.762000,-0.635000,
-0.762000,0.635000,
-0.759470,0.660970,
-0.752200,0.684980,
-0.740650,0.706580,
-0.725290,0.725290,
-0.706570,0.740650,
-0.684980,0.752200,
-0.660970,0.759470,
-0.635000,0.762000,
0.635000,0.762000,
0.660970,0.759470,
0.684980,0.752200,
0.706570,0.740650,
0.725290,0.725290,
0.740650,0.706580,
0.752200,0.684980,
0.759470,0.660970,
0.762000,0.635000,
0*%
%TA.AperFunction,Material*%
%ADD25PPAD017*%
%ADD26C,1.524000*%
%TA.AperFunction,Material*%
%ADD27C,2.540000*%
%AMPPAD020*
4,1,36,
-1.016000,1.143000,
1.016000,1.143000,
1.041970,1.140470,
1.065980,1.133200,
1.087580,1.121650,
1.106290,1.106290,
1.121650,1.087570,
1.133200,1.065980,
1.140470,1.041970,
1.143000,1.016000,
1.143000,-1.016000,
1.140470,-1.041970,
1.133200,-1.065980,
1.121650,-1.087570,
1.106290,-1.106290,
1.087580,-1.121650,
1.065980,-1.133200,
1.041970,-1.140470,
1.016000,-1.143000,
-1.016000,-1.143000,
-1.041970,-1.140470,
-1.065980,-1.133200,
-1.087580,-1.121650,
-1.106290,-1.106290,
-1.121650,-1.087570,
-1.133200,-1.065980,
-1.140470,-1.041970,
-1.143000,-1.016000,
-1.143000,1.016000,
-1.140470,1.041970,
-1.133200,1.065980,
-1.121650,1.087570,
-1.106290,1.106290,
-1.087580,1.121650,
-1.065980,1.133200,
-1.041970,1.140470,
-1.016000,1.143000,
0*%
%ADD28PPAD020*%
%TA.AperFunction,Profile*%
%ADD19C,0.203200*%
%TD.AperFunction*%
D21*
X-2540000Y+63500D03*
D22*
X-2200000Y+2500000D03*
X-2000000Y+2500000D03*
D23*
X-3750000Y+2500000D03*
X-2734000Y+2500000D03*
X-3750000Y+2250000D03*
X-2734000Y+2250000D03*
X-3750000Y+2000000D03*
X-2734000Y+2000000D03*
X-3750000Y+1750000D03*
X-2734000Y+1750000D03*
D24*
X-3500000Y+750000D03*
X-3500000Y+1004000D03*
X-3500000Y+1258000D03*
D25*
X-2500000Y+2000000D03*
D26*
X-2500000Y+1746000D03*
X-2500000Y+1492000D03*
X-2500000Y+1238000D03*
X-2500000Y+984000D03*
X-2500000Y+730000D03*
X-2500000Y+476000D03*
X-2500000Y+222000D03*
X-1738000Y+222000D03*
X-1738000Y+476000D03*
X-1738000Y+730000D03*
X-1738000Y+984000D03*
X-1738000Y+1238000D03*
X-1738000Y+1492000D03*
X-1738000Y+1746000D03*
X-1738000Y+2000000D03*
D25*
X-3750000Y+250000D03*
D26*
X-3750000Y-4000D03*
X-3750000Y-258000D03*
X-3750000Y-512000D03*
X-2988000Y-512000D03*
X-2988000Y-258000D03*
X-2988000Y-4000D03*
X-2988000Y+250000D03*
D27*
X-234000Y+2500000D03*
X-1250000Y+2500000D03*
X-234000Y+2000000D03*
X-1250000Y+2000000D03*
X-234000Y+1500000D03*
X-1250000Y+1500000D03*
X-234000Y+1000000D03*
X-1250000Y+1000000D03*
X-234000Y+500000D03*
X-1250000Y+500000D03*
X-234000Y+0D03*
X-1250000Y+0D03*
D24*
X-2750000Y-500000D03*
X-2496000Y-500000D03*
D28*
X-2250000Y-750000D03*
X-1996000Y-750000D03*
X-1500000Y-750000D03*
X-1246000Y-750000D03*
X-750000Y-750000D03*
X-496000Y-750000D03*
D19*
X-4000000Y+3000000D02*
X-4000000Y-1250000D01*
X+0Y-1250000D01*
X+0Y+3000000D01*
X-4000000Y+3000000D02*
X+0Y+3000000D01*
M02*
