G04 PROTEUS GERBER X2 FILE*
%TF.GenerationSoftware,Labcenter,Proteus,8.6-SP2-Build23525*%
%TF.CreationDate,2021-09-04T14:22:35+00:00*%
%TF.FileFunction,Copper,L1,Top*%
%TF.FilePolarity,Positive*%
%TF.Part,Single*%
%FSLAX45Y45*%
%MOMM*%
G01*
%TA.AperFunction,Conductor*%
%ADD10C,0.254000*%
%TA.AperFunction,ViaPad*%
%ADD11C,0.762000*%
%TA.AperFunction,WasherPad*%
%ADD12C,1.397000*%
%TA.AperFunction,ComponentPad*%
%ADD13C,1.778000*%
%TA.AperFunction,ComponentPad*%
%ADD14C,2.032000*%
%TA.AperFunction,ComponentPad*%
%ADD15R,1.270000X1.270000*%
%ADD16C,1.270000*%
%TA.AperFunction,ComponentPad*%
%ADD17C,2.286000*%
%ADD18R,2.032000X2.032000*%
%TA.AperFunction,Profile*%
%ADD19C,0.203200*%
%TD.AperFunction*%
D10*
X-3750000Y-4000D02*
X-3241999Y-4000D01*
X-2988000Y-258000D01*
X-2988000Y-257999D01*
X-1738000Y+1492001D02*
X-1738000Y+1492000D01*
X-1865001Y+1365000D01*
X-2540000Y+1365000D01*
X-2603500Y+1428500D01*
X-2603500Y+2119500D01*
X-2734000Y+2250000D01*
X-234000Y+1500000D02*
X-893000Y+2159000D01*
X-2341000Y+2159000D01*
X-2500000Y+2000000D01*
X-2500000Y+984000D02*
X-2355600Y+839600D01*
X-394400Y+839600D01*
X-234000Y+1000000D01*
X-2500000Y+730000D02*
X-2373000Y+603000D01*
X-1587500Y+603000D01*
X-1302000Y+317500D01*
X-416500Y+317500D01*
X-234000Y+500000D01*
X-1738000Y+222000D02*
X-456000Y+222000D01*
X-234000Y+0D01*
X-1738000Y+730000D02*
X-127000Y+730000D01*
X-63500Y+793500D01*
X-63500Y+2329500D01*
X-234000Y+2500000D01*
X-1250000Y+2500000D02*
X-1480500Y+2730500D01*
X-3873500Y+2730500D01*
X-3937000Y+2667000D01*
X-3937000Y+1937000D01*
X-3750000Y+1750000D01*
X-1250000Y+1500000D02*
X-1639000Y+1111000D01*
X-2861000Y+1111000D01*
X-3750000Y+2000000D01*
X-2540000Y+63500D02*
X-2667000Y+63500D01*
X-2730500Y+127000D01*
X-3627000Y+127000D01*
X-3750000Y+250000D01*
X-2496000Y-500000D02*
X-2095500Y-500000D01*
X-1996000Y-599500D01*
X-1996000Y-750000D01*
X-2496000Y-500000D02*
X-2496000Y-190500D01*
X-2540000Y-146500D01*
X-2540000Y+63500D01*
X-1246000Y-750000D02*
X-1004000Y-508000D01*
X-571500Y-508000D01*
X-496000Y-583500D01*
X-496000Y-750000D01*
D11*
X-2540000Y+63500D03*
D12*
X-2200000Y+2500000D03*
X-2000000Y+2500000D03*
D13*
X-3750000Y+2500000D03*
X-2734000Y+2500000D03*
X-3750000Y+2250000D03*
X-2734000Y+2250000D03*
X-3750000Y+2000000D03*
X-2734000Y+2000000D03*
X-3750000Y+1750000D03*
X-2734000Y+1750000D03*
D14*
X-3500000Y+750000D03*
X-3500000Y+1004000D03*
X-3500000Y+1258000D03*
D15*
X-2500000Y+2000000D03*
D16*
X-2500000Y+1746000D03*
X-2500000Y+1492000D03*
X-2500000Y+1238000D03*
X-2500000Y+984000D03*
X-2500000Y+730000D03*
X-2500000Y+476000D03*
X-2500000Y+222000D03*
X-1738000Y+222000D03*
X-1738000Y+476000D03*
X-1738000Y+730000D03*
X-1738000Y+984000D03*
X-1738000Y+1238000D03*
X-1738000Y+1492000D03*
X-1738000Y+1746000D03*
X-1738000Y+2000000D03*
D15*
X-3750000Y+250000D03*
D16*
X-3750000Y-4000D03*
X-3750000Y-258000D03*
X-3750000Y-512000D03*
X-2988000Y-512000D03*
X-2988000Y-258000D03*
X-2988000Y-4000D03*
X-2988000Y+250000D03*
D17*
X-234000Y+2500000D03*
X-1250000Y+2500000D03*
X-234000Y+2000000D03*
X-1250000Y+2000000D03*
X-234000Y+1500000D03*
X-1250000Y+1500000D03*
X-234000Y+1000000D03*
X-1250000Y+1000000D03*
X-234000Y+500000D03*
X-1250000Y+500000D03*
X-234000Y+0D03*
X-1250000Y+0D03*
D14*
X-2750000Y-500000D03*
X-2496000Y-500000D03*
D18*
X-2250000Y-750000D03*
X-1996000Y-750000D03*
X-1500000Y-750000D03*
X-1246000Y-750000D03*
X-750000Y-750000D03*
X-496000Y-750000D03*
D19*
X-4000000Y+3000000D02*
X-4000000Y-1250000D01*
X+0Y-1250000D01*
X+0Y+3000000D01*
X-4000000Y+3000000D02*
X+0Y+3000000D01*
M02*
