G04 PROTEUS GERBER X2 FILE*
%TF.GenerationSoftware,Labcenter,Proteus,8.6-SP2-Build23525*%
%TF.CreationDate,2021-09-04T14:22:35+00:00*%
%TF.FileFunction,AssemblyDrawing,Top*%
%TF.FilePolarity,Positive*%
%TF.Part,Single*%
%FSLAX45Y45*%
%MOMM*%
G01*
%TA.AperFunction,Material*%
%ADD71C,0.152400*%
%ADD29C,0.160020*%
%ADD20C,0.203200*%
%ADD72C,0.106680*%
%ADD73C,0.227330*%
%ADD30C,0.533400*%
%ADD31C,0.345440*%
%ADD32C,0.172210*%
%ADD33C,0.050800*%
%ADD34C,0.191010*%
%ADD35C,0.197270*%
%TA.AperFunction,Profile*%
%ADD19C,0.203200*%
%TD.AperFunction*%
D71*
X-2374320Y+2625400D02*
X-2374320Y+2373940D01*
X-1825680Y+2373940D01*
X-1825680Y+2625400D01*
X-2374320Y+2625400D01*
X-2374320Y+2373940D01*
X-1825680Y+2373940D01*
X-1825680Y+2625400D01*
X-2374320Y+2625400D01*
D29*
X-2228016Y+2483668D02*
X-2228016Y+2467666D01*
X-2212014Y+2451664D01*
X-2148006Y+2451664D01*
X-2132004Y+2467666D01*
X-2132004Y+2547676D01*
X-2067996Y+2515672D02*
X-2035992Y+2547676D01*
X-2035992Y+2451664D01*
D20*
X-3838900Y+2411100D02*
X-2645100Y+2411100D01*
X-2645100Y+2588900D01*
X-3838900Y+2588900D01*
X-3838900Y+2411100D01*
D72*
X-3327344Y+2467996D02*
X-3327344Y+2532004D01*
X-3274004Y+2532004D01*
X-3263336Y+2521336D01*
X-3263336Y+2510668D01*
X-3274004Y+2500000D01*
X-3327344Y+2500000D01*
X-3274004Y+2500000D02*
X-3263336Y+2489332D01*
X-3263336Y+2467996D01*
X-3220664Y+2510668D02*
X-3199328Y+2532004D01*
X-3199328Y+2467996D01*
D20*
X-3838900Y+2161100D02*
X-2645100Y+2161100D01*
X-2645100Y+2338900D01*
X-3838900Y+2338900D01*
X-3838900Y+2161100D01*
D72*
X-3327344Y+2217996D02*
X-3327344Y+2282004D01*
X-3274004Y+2282004D01*
X-3263336Y+2271336D01*
X-3263336Y+2260668D01*
X-3274004Y+2250000D01*
X-3327344Y+2250000D01*
X-3274004Y+2250000D02*
X-3263336Y+2239332D01*
X-3263336Y+2217996D01*
X-3231332Y+2271336D02*
X-3220664Y+2282004D01*
X-3188660Y+2282004D01*
X-3177992Y+2271336D01*
X-3177992Y+2260668D01*
X-3188660Y+2250000D01*
X-3220664Y+2250000D01*
X-3231332Y+2239332D01*
X-3231332Y+2217996D01*
X-3177992Y+2217996D01*
D20*
X-3838900Y+1911100D02*
X-2645100Y+1911100D01*
X-2645100Y+2088900D01*
X-3838900Y+2088900D01*
X-3838900Y+1911100D01*
D72*
X-3327344Y+1967996D02*
X-3327344Y+2032004D01*
X-3274004Y+2032004D01*
X-3263336Y+2021336D01*
X-3263336Y+2010668D01*
X-3274004Y+2000000D01*
X-3327344Y+2000000D01*
X-3274004Y+2000000D02*
X-3263336Y+1989332D01*
X-3263336Y+1967996D01*
X-3231332Y+2021336D02*
X-3220664Y+2032004D01*
X-3188660Y+2032004D01*
X-3177992Y+2021336D01*
X-3177992Y+2010668D01*
X-3188660Y+2000000D01*
X-3177992Y+1989332D01*
X-3177992Y+1978664D01*
X-3188660Y+1967996D01*
X-3220664Y+1967996D01*
X-3231332Y+1978664D01*
X-3209996Y+2000000D02*
X-3188660Y+2000000D01*
D20*
X-3838900Y+1661100D02*
X-2645100Y+1661100D01*
X-2645100Y+1838900D01*
X-3838900Y+1838900D01*
X-3838900Y+1661100D01*
D72*
X-3327344Y+1717996D02*
X-3327344Y+1782004D01*
X-3274004Y+1782004D01*
X-3263336Y+1771336D01*
X-3263336Y+1760668D01*
X-3274004Y+1750000D01*
X-3327344Y+1750000D01*
X-3274004Y+1750000D02*
X-3263336Y+1739332D01*
X-3263336Y+1717996D01*
X-3177992Y+1739332D02*
X-3242000Y+1739332D01*
X-3199328Y+1782004D01*
X-3199328Y+1717996D01*
D20*
X-3700660Y+549340D02*
X-3299340Y+549340D01*
X-3299340Y+1458660D01*
X-3700660Y+1458660D01*
X-3700660Y+549340D01*
D73*
X-3431801Y+731204D02*
X-3568199Y+731204D01*
X-3568199Y+844869D01*
X-3545466Y+867602D01*
X-3522733Y+867602D01*
X-3500000Y+844869D01*
X-3500000Y+731204D01*
X-3500000Y+844869D02*
X-3477267Y+867602D01*
X-3431801Y+867602D01*
X-3568199Y+913068D02*
X-3500000Y+913068D01*
X-3431801Y+981267D01*
X-3500000Y+1049466D01*
X-3568199Y+1049466D01*
X-3545466Y+1117665D02*
X-3568199Y+1140398D01*
X-3568199Y+1208597D01*
X-3545466Y+1231330D01*
X-3522733Y+1231330D01*
X-3500000Y+1208597D01*
X-3500000Y+1140398D01*
X-3477267Y+1117665D01*
X-3431801Y+1117665D01*
X-3431801Y+1231330D01*
D20*
X-2563500Y+84840D02*
X-1674500Y+84840D01*
X-1674500Y+2137160D01*
X-2563500Y+2137160D01*
X-2563500Y+84840D01*
D30*
X-2279020Y+684280D02*
X-2012320Y+684280D01*
X-1958980Y+737620D01*
X-1958980Y+950980D01*
X-2012320Y+1004320D01*
X-2279020Y+1004320D01*
X-2225680Y+1164340D02*
X-2279020Y+1217680D01*
X-2279020Y+1377700D01*
X-2225680Y+1431040D01*
X-2172340Y+1431040D01*
X-2119000Y+1377700D01*
X-2119000Y+1217680D01*
X-2065660Y+1164340D01*
X-1958980Y+1164340D01*
X-1958980Y+1431040D01*
D20*
X-3813500Y-649160D02*
X-2924500Y-649160D01*
X-2924500Y+387160D01*
X-3813500Y+387160D01*
X-3813500Y-649160D01*
D31*
X-3472632Y-407352D02*
X-3299912Y-407352D01*
X-3265368Y-372808D01*
X-3265368Y-234632D01*
X-3299912Y-200088D01*
X-3472632Y-200088D01*
X-3403544Y-61912D02*
X-3472632Y+7176D01*
X-3265368Y+7176D01*
D20*
X-1364300Y+2357760D02*
X-119700Y+2357760D01*
X-119700Y+2644780D01*
X-1364300Y+2644780D01*
X-1364300Y+2357760D01*
D32*
X-879769Y+2449606D02*
X-879769Y+2552933D01*
X-810885Y+2552933D01*
X-776443Y+2518491D01*
X-776443Y+2484048D01*
X-810885Y+2449606D01*
X-879769Y+2449606D01*
X-724779Y+2535712D02*
X-707558Y+2552933D01*
X-655895Y+2552933D01*
X-638674Y+2535712D01*
X-638674Y+2518491D01*
X-655895Y+2501270D01*
X-638674Y+2484048D01*
X-638674Y+2466827D01*
X-655895Y+2449606D01*
X-707558Y+2449606D01*
X-724779Y+2466827D01*
X-690337Y+2501270D02*
X-655895Y+2501270D01*
D20*
X-1364300Y+1857760D02*
X-119700Y+1857760D01*
X-119700Y+2144780D01*
X-1364300Y+2144780D01*
X-1364300Y+1857760D01*
D32*
X-879769Y+1949606D02*
X-879769Y+2052933D01*
X-810885Y+2052933D01*
X-776443Y+2018491D01*
X-776443Y+1984048D01*
X-810885Y+1949606D01*
X-879769Y+1949606D01*
X-638674Y+1984048D02*
X-742000Y+1984048D01*
X-673116Y+2052933D01*
X-673116Y+1949606D01*
D20*
X-1364300Y+1357760D02*
X-119700Y+1357760D01*
X-119700Y+1644780D01*
X-1364300Y+1644780D01*
X-1364300Y+1357760D01*
D32*
X-879769Y+1449606D02*
X-879769Y+1552933D01*
X-810885Y+1552933D01*
X-776443Y+1518491D01*
X-776443Y+1484048D01*
X-810885Y+1449606D01*
X-879769Y+1449606D01*
X-638674Y+1552933D02*
X-724779Y+1552933D01*
X-724779Y+1518491D01*
X-655895Y+1518491D01*
X-638674Y+1501270D01*
X-638674Y+1466827D01*
X-655895Y+1449606D01*
X-707558Y+1449606D01*
X-724779Y+1466827D01*
D20*
X-1364300Y+857760D02*
X-119700Y+857760D01*
X-119700Y+1144780D01*
X-1364300Y+1144780D01*
X-1364300Y+857760D01*
D32*
X-879769Y+949606D02*
X-879769Y+1052933D01*
X-810885Y+1052933D01*
X-776443Y+1018491D01*
X-776443Y+984048D01*
X-810885Y+949606D01*
X-879769Y+949606D01*
X-638674Y+1035712D02*
X-655895Y+1052933D01*
X-707558Y+1052933D01*
X-724779Y+1035712D01*
X-724779Y+966827D01*
X-707558Y+949606D01*
X-655895Y+949606D01*
X-638674Y+966827D01*
X-638674Y+984048D01*
X-655895Y+1001270D01*
X-724779Y+1001270D01*
D20*
X-1364300Y+357760D02*
X-119700Y+357760D01*
X-119700Y+644780D01*
X-1364300Y+644780D01*
X-1364300Y+357760D01*
D32*
X-879769Y+449606D02*
X-879769Y+552933D01*
X-810885Y+552933D01*
X-776443Y+518491D01*
X-776443Y+484048D01*
X-810885Y+449606D01*
X-879769Y+449606D01*
X-724779Y+552933D02*
X-638674Y+552933D01*
X-638674Y+535712D01*
X-724779Y+449606D01*
D20*
X-1364300Y-142240D02*
X-119700Y-142240D01*
X-119700Y+144780D01*
X-1364300Y+144780D01*
X-1364300Y-142240D01*
D32*
X-879769Y-50394D02*
X-879769Y+52933D01*
X-810885Y+52933D01*
X-776443Y+18491D01*
X-776443Y-15952D01*
X-810885Y-50394D01*
X-879769Y-50394D01*
X-707558Y+1270D02*
X-724779Y+18491D01*
X-724779Y+35712D01*
X-707558Y+52933D01*
X-655895Y+52933D01*
X-638674Y+35712D01*
X-638674Y+18491D01*
X-655895Y+1270D01*
X-707558Y+1270D01*
X-724779Y-15952D01*
X-724779Y-33173D01*
X-707558Y-50394D01*
X-655895Y-50394D01*
X-638674Y-33173D01*
X-638674Y-15952D01*
X-655895Y+1270D01*
D33*
X-2339940Y-500000D02*
X-2340858Y-477186D01*
X-2348311Y-431557D01*
X-2363858Y-385928D01*
X-2389100Y-340299D01*
X-2427642Y-294769D01*
X-2473271Y-259273D01*
X-2518900Y-236153D01*
X-2564529Y-222300D01*
X-2610158Y-216354D01*
X-2623920Y-216020D01*
X-2907900Y-500000D02*
X-2906982Y-477186D01*
X-2899529Y-431557D01*
X-2883982Y-385928D01*
X-2858740Y-340299D01*
X-2820198Y-294769D01*
X-2774569Y-259273D01*
X-2728940Y-236153D01*
X-2683311Y-222300D01*
X-2637682Y-216354D01*
X-2623920Y-216020D01*
X-2907900Y-500000D02*
X-2906982Y-522814D01*
X-2899529Y-568443D01*
X-2883982Y-614072D01*
X-2858740Y-659701D01*
X-2820198Y-705231D01*
X-2774569Y-740727D01*
X-2728940Y-763847D01*
X-2683311Y-777700D01*
X-2637682Y-783646D01*
X-2623920Y-783980D01*
X-2339940Y-500000D02*
X-2340858Y-522814D01*
X-2348311Y-568443D01*
X-2363858Y-614072D01*
X-2389100Y-659701D01*
X-2427642Y-705231D01*
X-2473271Y-740727D01*
X-2518900Y-763847D01*
X-2564529Y-777700D01*
X-2610158Y-783646D01*
X-2623920Y-783980D01*
D34*
X-2662123Y-538203D02*
X-2681224Y-557304D01*
X-2738528Y-557304D01*
X-2776730Y-519101D01*
X-2776730Y-480899D01*
X-2738528Y-442696D01*
X-2681224Y-442696D01*
X-2662123Y-461797D01*
X-2585718Y-480899D02*
X-2547515Y-442696D01*
X-2547515Y-557304D01*
D20*
X-2450660Y-1014160D02*
X-1858840Y-1014160D01*
X-1858840Y-422340D01*
X-2450660Y-422340D01*
X-2450660Y-1014160D01*
D35*
X-2312568Y-777432D02*
X-2312568Y-659068D01*
X-2233659Y-659068D01*
X-2194205Y-698523D01*
X-2194205Y-737977D01*
X-2233659Y-777432D01*
X-2312568Y-777432D01*
X-2115296Y-698523D02*
X-2075841Y-659068D01*
X-2075841Y-777432D01*
D20*
X-1700660Y-1014160D02*
X-1108840Y-1014160D01*
X-1108840Y-422340D01*
X-1700660Y-422340D01*
X-1700660Y-1014160D01*
D35*
X-1562568Y-777432D02*
X-1562568Y-659068D01*
X-1483659Y-659068D01*
X-1444205Y-698523D01*
X-1444205Y-737977D01*
X-1483659Y-777432D01*
X-1562568Y-777432D01*
X-1385023Y-678795D02*
X-1365296Y-659068D01*
X-1306114Y-659068D01*
X-1286387Y-678795D01*
X-1286387Y-698523D01*
X-1306114Y-718250D01*
X-1365296Y-718250D01*
X-1385023Y-737977D01*
X-1385023Y-777432D01*
X-1286387Y-777432D01*
D20*
X-950660Y-1014160D02*
X-358840Y-1014160D01*
X-358840Y-422340D01*
X-950660Y-422340D01*
X-950660Y-1014160D01*
D35*
X-812568Y-777432D02*
X-812568Y-659068D01*
X-733659Y-659068D01*
X-694205Y-698523D01*
X-694205Y-737977D01*
X-733659Y-777432D01*
X-812568Y-777432D01*
X-536387Y-698523D02*
X-556114Y-718250D01*
X-615296Y-718250D01*
X-635023Y-698523D01*
X-635023Y-678795D01*
X-615296Y-659068D01*
X-556114Y-659068D01*
X-536387Y-678795D01*
X-536387Y-757705D01*
X-556114Y-777432D01*
X-615296Y-777432D01*
D19*
X-4000000Y+3000000D02*
X-4000000Y-1250000D01*
X+0Y-1250000D01*
X+0Y+3000000D01*
X-4000000Y+3000000D02*
X+0Y+3000000D01*
M02*
